<svg xmlns="http://www.w3.org/2000/svg" version="1.1" xmlns:xlink="http://www.w3.org/1999/xlink" xmlns:svgjs="http://svgjs.com/svgjs" width="1000" height="1000"><style>
    #light-icon {
      display: inline;
    }
    #dark-icon {
      display: none;
    }

    @media (prefers-color-scheme: dark) {
      #light-icon {
        display: none;
      }
      #dark-icon {
        display: inline;
      }
    }
  </style><g id="light-icon"><svg xmlns="http://www.w3.org/2000/svg" version="1.1" xmlns:xlink="http://www.w3.org/1999/xlink" xmlns:svgjs="http://svgjs.com/svgjs" width="1000" height="1000"><g transform="matrix(3.238748532705843,0,0,3.238748532705843,-0.00009203794155610012,6.227490298200792)" style="filter: contrast(1) brightness(1)"><svg xmlns="http://www.w3.org/2000/svg" version="1.1" xmlns:xlink="http://www.w3.org/1999/xlink" xmlns:svgjs="http://svgjs.com/svgjs" width="308.7612359841165" height="304.915625"><svg xmlns="http://www.w3.org/2000/svg" version="1.1" xmlns:xlink="http://www.w3.org/1999/xlink" xmlns:svgjs="http://svgjs.dev/svgjs" width="308.7612359841165" height="304.915625" viewBox="0 0 1000 1125">
  <g transform="matrix(1,0,0,1,0.00011477487299771383,0)">
    <svg viewBox="0 0 320 360" data-background-color="#ffffff" preserveAspectRatio="xMidYMid meet" height="1125" width="1000" xmlns="http://www.w3.org/2000/svg" xmlns:xlink="http://www.w3.org/1999/xlink">
      <g id="tight-bounds" transform="matrix(1,0,0,1,-0.00003672795935472095,0)">
        <svg viewBox="0 0 320 360" height="360" width="320">
          <rect width="320.0000734559187" height="360" fill="url(#1ada2b8b-e73c-4812-b35c-92ce98a424a5)" mask="url(#dfa7aa23-f5c9-4b32-a5cf-e2120064ae60)" data-fill-palette-color="tertiary"></rect>
          <g>
            <svg></svg>
          </g>
          <g>
            <svg viewBox="0 0 320 360" height="360" width="320">
              <g>
                <path transform="translate(-32.1528,-12.1528) scale(3.84303,3.84303)" d="M88.492 50l1.711-2.963c2.946-5.102 1.198-11.626-3.904-14.572l-2.963-1.711v-3.422c0-5.891-4.776-10.667-10.667-10.667h-3.422l-1.711-2.963c-2.946-5.102-9.47-6.85-14.572-3.904l-2.964 1.71-2.963-1.711c-5.102-2.945-11.626-1.197-14.572 3.905l-1.711 2.963h-3.422c-5.891 0-10.667 4.776-10.667 10.667v3.422l-2.963 1.711c-5.102 2.946-6.85 9.47-3.904 14.572l1.71 2.963-1.711 2.963c-2.945 5.102-1.197 11.626 3.905 14.572l2.963 1.711v3.422c0 5.891 4.776 10.667 10.667 10.667h3.422l1.711 2.963c2.946 5.102 9.47 6.85 14.572 3.904l2.963-1.71 2.963 1.711c5.102 2.946 11.626 1.198 14.572-3.904l1.711-2.963h3.422c5.891 0 10.667-4.776 10.667-10.667v-3.422l2.963-1.711c5.102-2.946 6.85-9.47 3.904-14.572zM85.832 33.273c2.252 1.3 3.862 3.399 4.535 5.91 0.673 2.511 0.328 5.135-0.972 7.386l-1.441 2.497-4.618-7.999v-9.236zM73.72 73.72l-15.038 8.682h-17.364l-15.038-8.682-8.682-15.038v-17.364l8.682-15.038 15.038-8.682h17.364l15.038 8.682 8.682 15.038v17.364zM82.401 60.549v8.158l-7.065 4.079zM72.786 75.336l-4.079 7.065h-8.158zM57.065 83.335l-7.065 4.079-7.065-4.079zM39.451 82.401h-8.158l-4.079-7.065zM24.664 72.786l-7.065-4.079v-8.158zM16.665 57.065l-4.079-7.065 4.079-7.065zM17.599 39.451v-8.158l7.065-4.079zM27.214 24.664l4.079-7.065h8.158zM42.935 16.665l7.065-4.079 7.065 4.079zM60.549 17.599h8.158l4.079 7.065zM75.336 27.214l7.065 4.079v8.158zM83.335 42.935l4.079 7.065-4.079 7.065zM72.668 17.599c2.6 0 5.044 1.012 6.883 2.851 1.838 1.838 2.851 4.283 2.851 6.883v2.883l-7.999-4.618-4.618-7.999zM53.43 10.606c2.252-1.3 4.875-1.645 7.386-0.972 2.511 0.673 4.61 2.284 5.91 4.535l1.441 2.497h-9.236l-7.999-4.618zM33.273 14.168c1.3-2.252 3.399-3.862 5.91-4.535 2.511-0.673 5.135-0.328 7.386 0.972l2.497 1.441-7.999 4.618h-9.236zM17.599 27.332c0-2.6 1.012-5.044 2.851-6.883 1.838-1.838 4.283-2.851 6.883-2.851h2.883l-4.618 7.999-7.999 4.618zM10.606 46.57c-1.3-2.252-1.645-4.875-0.972-7.386 0.673-2.511 2.284-4.61 4.535-5.91l2.497-1.441v9.236l-4.618 7.999zM14.168 66.727c-2.252-1.3-3.862-3.399-4.535-5.91-0.673-2.511-0.328-5.135 0.972-7.386l1.441-2.497 4.618 7.999v9.236zM27.332 82.401c-2.6 0-5.044-1.012-6.883-2.851-1.838-1.838-2.851-4.283-2.851-6.883v-2.883l7.999 4.618 4.618 7.999zM46.57 89.394c-2.252 1.3-4.875 1.645-7.386 0.972-2.511-0.673-4.61-2.284-5.91-4.535l-1.441-2.497h9.236l7.999 4.618zM66.727 85.832c-1.3 2.252-3.399 3.862-5.91 4.535-2.511 0.673-5.135 0.328-7.386-0.972l-2.497-1.441 7.999-4.618h9.236zM82.401 72.668c0 2.6-1.012 5.044-2.851 6.883-1.838 1.838-4.283 2.851-6.883 2.851h-2.883l4.618-7.999 7.999-4.618zM90.367 60.816c-0.673 2.511-2.284 4.61-4.535 5.91l-2.497 1.441v-9.236l4.618-7.999 1.441 2.497c1.3 2.253 1.646 4.876 0.973 7.387z" fill="url(#1ada2b8b-e73c-4812-b35c-92ce98a424a5)" fill-rule="nonzero" stroke="none" stroke-width="1" stroke-linecap="butt" stroke-linejoin="miter" stroke-miterlimit="10" stroke-dasharray="" stroke-dashoffset="0" font-family="none" font-weight="none" font-size="none" text-anchor="none" style="mix-blend-mode: normal" data-fill-palette-color="tertiary"></path>
              </g>
              <g transform="matrix(1,0,0,1,75.3788372445132,90)">
                <svg viewBox="0 0 169.2423255109736 180" height="180" width="169.2423255109736">
                  <g>
                    <svg viewBox="0 0 169.2423255109736 180" height="180" width="169.2423255109736">
                      <g>
                        <svg viewBox="0 0 192 204.20423730090582" height="180" width="169.2423255109736">
                          <g transform="matrix(1,0,0,1,0,120.40313232853012)">
                            <svg viewBox="0 0 192 83.8011049723757" height="83.8011049723757" width="192">
                              <g id="textblocktransform">
                                <svg viewBox="0 0 192 83.8011049723757" height="83.8011049723757" width="192" id="textblock">
                                  <g>
                                    <svg viewBox="0 0 192 83.8011049723757" height="83.8011049723757" width="192">
                                      <g transform="matrix(1,0,0,1,0,0)">
                                        <svg width="192" viewBox="-0.7999999999999998 -29.6 73.39999999999999 32.6" height="83.8011049723757" data-palette-color="url(#030a8b55-339f-499b-b427-26e5ae896079)"></svg>
                                      </g>
                                    </svg>
                                  </g>
                                </svg>
                              </g>
                            </svg>
                          </g>
                          <g transform="matrix(1,0,0,1,36.672,0)">
                            <svg viewBox="0 0 118.656 110.10944375394449" height="110.10944375394449" width="118.656">
                              <g>
                                <svg xmlns="http://www.w3.org/2000/svg" xmlns:xlink="http://www.w3.org/1999/xlink" version="1.1" x="0" y="0" viewBox="18.097208739664175 20.400000000000006 63.90279126033581 59.30000000000001" enable-background="new 0 0 100 100" xml:space="preserve" height="110.10944375394449" width="118.656" class="icon-icon-0" data-fill-palette-color="accent" id="icon-0"></svg>
                              </g>
                            </svg>
                          </g>
                          <g></g>
                        </svg>
                      </g>
                    </svg>
                  </g>
                </svg>
              </g>
            </svg>
          </g>
          <defs></defs>
          <mask id="7baa48a8-00fc-4251-9dd0-8b88fa8a5b2f">
            <g id="SvgjsG1029">
              <svg viewBox="0 0 320 360" height="360" width="320">
                <g>
                  <svg></svg>
                </g>
                <g>
                  <svg viewBox="0 0 320 360" height="360" width="320">
                    <g></g>
                    <g transform="matrix(1,0,0,1,75.3788372445132,90)">
                      <svg viewBox="0 0 169.2423255109736 180" height="180" width="169.2423255109736">
                        <g>
                          <svg viewBox="0 0 169.2423255109736 180" height="180" width="169.2423255109736">
                            <g>
                              <svg viewBox="0 0 192 204.20423730090582" height="180" width="169.2423255109736">
                                <g transform="matrix(1,0,0,1,0,120.40313232853012)">
                                  <svg viewBox="0 0 192 83.8011049723757" height="83.8011049723757" width="192">
                                    <g id="SvgjsG1028">
                                      <svg viewBox="0 0 192 83.8011049723757" height="83.8011049723757" width="192" id="SvgjsSvg1027">
                                        <g>
                                          <svg viewBox="0 0 192 83.8011049723757" height="83.8011049723757" width="192">
                                            <g transform="matrix(1,0,0,1,0,0)">
                                              <svg width="192" viewBox="-0.7999999999999998 -29.6 73.39999999999999 32.6" height="83.8011049723757" data-palette-color="url(#030a8b55-339f-499b-b427-26e5ae896079)">
                                                <path d="M2.2 0L2.2-2.7 5.6-2.7 5.6-22 2.2-22.65 2.2-24.85 11.05-26.6 11.05-21.95 11.3-21.95Q11.65-22.85 12.18-23.68 12.7-24.5 13.48-25.15 14.25-25.8 15.28-26.2 16.3-26.6 17.6-26.6L17.6-26.6Q19.9-26.6 21.28-25.45 22.65-24.3 22.65-22.15L22.65-22.15Q22.65-20.45 21.78-19.48 20.9-18.5 19.4-18.5L19.4-18.5Q17.85-18.5 16.98-19.33 16.1-20.15 16.1-21.4L16.1-21.4Q16.1-22.25 16.45-22.83 16.8-23.4 17.3-23.5L17.3-23.5 17.3-23.65Q17.15-23.7 16.95-23.73 16.75-23.75 16.35-23.75L16.35-23.75Q15.4-23.75 14.48-23.25 13.55-22.75 12.83-21.98 12.1-21.2 11.65-20.23 11.2-19.25 11.2-18.3L11.2-18.3 11.2-2.7 15.6-2.7 15.6 0 2.2 0ZM25.4 0L25.4-2.7 28.8-2.7 28.8-22 25.4-22.65 25.4-24.85 34.25-26.6 34.25-21.95 34.5-21.95Q34.8-22.8 35.4-23.65 36-24.5 36.9-25.15 37.8-25.8 39-26.2 40.2-26.6 41.75-26.6L41.75-26.6Q45.1-26.6 47.02-25.38 48.95-24.15 49.7-21.6L49.7-21.6 49.85-21.6Q50.25-22.5 50.92-23.4 51.6-24.3 52.55-25.03 53.5-25.75 54.75-26.18 56-26.6 57.65-26.6L57.65-26.6Q62.3-26.6 64.25-24.18 66.2-21.75 66.2-16.9L66.2-16.9 66.2-2.7 69.6-2.7 69.6 0 57.4 0 57.4-2.7 60.6-2.7 60.6-16.6Q60.6-19.85 59.37-21.35 58.15-22.85 55.6-22.85L55.6-22.85Q54.6-22.85 53.65-22.58 52.7-22.3 51.95-21.73 51.2-21.15 50.75-20.28 50.3-19.4 50.3-18.2L50.3-18.2 50.3-2.7 53.5-2.7 53.5 0 41.5 0 41.5-2.7 44.7-2.7 44.7-16.6Q44.7-19.85 43.47-21.35 42.25-22.85 39.7-22.85L39.7-22.85Q38.7-22.85 37.75-22.58 36.8-22.3 36.05-21.73 35.3-21.15 34.85-20.28 34.4-19.4 34.4-18.2L34.4-18.2 34.4-2.7 37.6-2.7 37.6 0 25.4 0Z" opacity="1" transform="matrix(1,0,0,1,0,0)" fill="white" class="wordmark-text-0" id="SvgjsPath1026"></path>
                                              </svg>
                                            </g>
                                          </svg>
                                        </g>
                                      </svg>
                                    </g>
                                  </svg>
                                </g>
                                <g transform="matrix(1,0,0,1,36.672,0)">
                                  <svg viewBox="0 0 118.656 110.10944375394449" height="110.10944375394449" width="118.656">
                                    <g>
                                      <svg xmlns="http://www.w3.org/2000/svg" xmlns:xlink="http://www.w3.org/1999/xlink" version="1.1" x="0" y="0" viewBox="18.097208739664175 20.400000000000006 63.90279126033581 59.30000000000001" enable-background="new 0 0 100 100" xml:space="preserve" height="110.10944375394449" width="118.656" class="icon-icon-0" data-fill-palette-color="accent" id="SvgjsSvg1025"></svg>
                                    </g>
                                  </svg>
                                </g>
                                <g></g>
                              </svg>
                            </g>
                          </svg>
                        </g>
                      </svg>
                    </g>
                  </svg>
                </g>
                <defs>
                  <mask></mask>
                </defs>
              </svg>
            </g>
          </mask>
          <linearGradient x1="0" x2="1" y1="0.548" y2="0.55" id="030a8b55-339f-499b-b427-26e5ae896079">
            <stop stop-color="#ff6cab" offset="0"></stop>
            <stop stop-color="#7366ff" offset="1"></stop>
          </linearGradient>
          <rect width="320.0000734559187" height="360" fill="url(#030a8b55-339f-499b-b427-26e5ae896079)" mask="url(#7baa48a8-00fc-4251-9dd0-8b88fa8a5b2f)" data-fill-palette-color="primary"></rect>
          <mask id="dfc1851f-f95c-4764-95c1-8b2095b3a5dc">
            <g id="SvgjsG1038">
              <svg viewBox="0 0 320 360" height="360" width="320">
                <g>
                  <svg></svg>
                </g>
                <g>
                  <svg viewBox="0 0 320 360" height="360" width="320">
                    <g></g>
                    <g transform="matrix(1,0,0,1,75.3788372445132,90)">
                      <svg viewBox="0 0 169.2423255109736 180" height="180" width="169.2423255109736">
                        <g>
                          <svg viewBox="0 0 169.2423255109736 180" height="180" width="169.2423255109736">
                            <g>
                              <svg viewBox="0 0 192 204.20423730090582" height="180" width="169.2423255109736">
                                <g transform="matrix(1,0,0,1,0,120.40313232853012)">
                                  <svg viewBox="0 0 192 83.8011049723757" height="83.8011049723757" width="192">
                                    <g id="SvgjsG1037">
                                      <svg viewBox="0 0 192 83.8011049723757" height="83.8011049723757" width="192" id="SvgjsSvg1036">
                                        <g>
                                          <svg viewBox="0 0 192 83.8011049723757" height="83.8011049723757" width="192">
                                            <g transform="matrix(1,0,0,1,0,0)">
                                              <svg width="192" viewBox="-0.7999999999999998 -29.6 73.39999999999999 32.6" height="83.8011049723757" data-palette-color="url(#030a8b55-339f-499b-b427-26e5ae896079)"></svg>
                                            </g>
                                          </svg>
                                        </g>
                                      </svg>
                                    </g>
                                  </svg>
                                </g>
                                <g transform="matrix(1,0,0,1,36.672,0)">
                                  <svg viewBox="0 0 118.656 110.10944375394449" height="110.10944375394449" width="118.656">
                                    <g>
                                      <svg xmlns="http://www.w3.org/2000/svg" xmlns:xlink="http://www.w3.org/1999/xlink" version="1.1" x="0" y="0" viewBox="18.097208739664175 20.400000000000006 63.90279126033581 59.30000000000001" enable-background="new 0 0 100 100" xml:space="preserve" height="110.10944375394449" width="118.656" class="icon-icon-0" data-fill-palette-color="accent" id="SvgjsSvg1035">
                                        <g fill="white">
                                          <path d="M23.8 31.6c0.6 0 1.2-0.1 1.8-0.3l6.9 2.6c2.7 1 4.5 3.7 4.5 6.6 0 3.5 2.1 6.6 5.3 7.9l2.4 0.9c-0.3 0.7-0.5 1.5-0.5 2.4 0 3.2 2.6 5.7 5.7 5.7 1.1 0 2.1-0.3 3-0.8l5.9 2.1c2.6 0.9 4.4 3.4 4.4 6.2 0 2.8 1.8 5.3 4.5 6.2l3.1 1c-0.2 0.6-0.3 1.2-0.3 1.9 0 3.2 2.6 5.7 5.7 5.7 3.2 0 5.7-2.6 5.7-5.7 0-3.2-2.6-5.7-5.7-5.7-1.4 0-2.6 0.5-3.6 1.3l-3.9-1.3c-1.5-0.5-2.5-1.9-2.5-3.4 0-4-2.5-7.7-6.3-9l-4.7-1.7c0.2-0.3 0.3-0.7 0.4-1h15.2c0.7 2.4 2.9 4.3 5.5 4.3 3.2 0 5.7-2.6 5.7-5.7 0-3.2-2.6-5.7-5.7-5.7-2.7 0-4.9 1.8-5.5 4.3H55.5C54.9 47.8 52.7 46 50 46c-1.2 0-2.3 0.4-3.2 1l-3.3-1.3c-2.1-0.8-3.5-2.8-3.5-5.1 0-4.1-2.6-7.9-6.5-9.4l-5.1-1.9c0.4-0.5 0.7-1.2 0.9-1.8h15.2c0.7 2.4 2.9 4.3 5.5 4.3s4.9-1.8 5.5-4.3h15.2c0.7 2.4 2.9 4.3 5.5 4.3 3.2 0 5.7-2.6 5.7-5.7 0-3.2-2.6-5.7-5.7-5.7-2.7 0-4.9 1.8-5.5 4.3H55.5c-0.7-2.4-2.9-4.3-5.5-4.3s-4.9 1.8-5.5 4.3H29.3c-0.7-2.4-2.9-4.3-5.5-4.3-3.2 0-5.7 2.6-5.7 5.7C18 29 20.6 31.6 23.8 31.6zM79 74.1c0 1.5-1.2 2.8-2.8 2.8-1.5 0-2.8-1.2-2.8-2.8 0-1.5 1.2-2.8 2.8-2.8C77.8 71.4 79 72.6 79 74.1zM76.2 49c1.5 0 2.8 1.2 2.8 2.8 0 1.5-1.2 2.8-2.8 2.8-1.5 0-2.8-1.2-2.8-2.8C73.5 50.2 74.7 49 76.2 49zM52.8 51.7c0 1.5-1.2 2.8-2.8 2.8s-2.8-1.2-2.8-2.8c0-1.5 1.2-2.8 2.8-2.8S52.8 50.2 52.8 51.7zM76.2 23.1c1.5 0 2.8 1.2 2.8 2.8 0 1.5-1.2 2.8-2.8 2.8-1.5 0-2.8-1.2-2.8-2.8C73.5 24.3 74.7 23.1 76.2 23.1zM50 23.1c1.5 0 2.8 1.2 2.8 2.8 0 0 0 0 0 0 0 0 0 0 0 0 0 1.5-1.2 2.8-2.8 2.8-1.5 0-2.8-1.2-2.8-2.8C47.2 24.3 48.5 23.1 50 23.1zM23.8 23.1c1.5 0 2.8 1.2 2.8 2.8 0 1.5-1.2 2.8-2.8 2.8-1.5 0-2.8-1.2-2.8-2.8C21 24.3 22.2 23.1 23.8 23.1z" fill="white"></path>
                                        </g>
                                      </svg>
                                    </g>
                                  </svg>
                                </g>
                                <g></g>
                              </svg>
                            </g>
                          </svg>
                        </g>
                      </svg>
                    </g>
                  </svg>
                </g>
                <defs>
                  <mask></mask>
                </defs>
                <mask>
                  <g id="SvgjsG1034">
                    <svg viewBox="0 0 320 360" height="360" width="320">
                      <g>
                        <svg></svg>
                      </g>
                      <g>
                        <svg viewBox="0 0 320 360" height="360" width="320">
                          <g></g>
                          <g transform="matrix(1,0,0,1,75.3788372445132,90)">
                            <svg viewBox="0 0 169.2423255109736 180" height="180" width="169.2423255109736">
                              <g>
                                <svg viewBox="0 0 169.2423255109736 180" height="180" width="169.2423255109736">
                                  <g>
                                    <svg viewBox="0 0 192 204.20423730090582" height="180" width="169.2423255109736">
                                      <g transform="matrix(1,0,0,1,0,120.40313232853012)">
                                        <svg viewBox="0 0 192 83.8011049723757" height="83.8011049723757" width="192">
                                          <g id="SvgjsG1033">
                                            <svg viewBox="0 0 192 83.8011049723757" height="83.8011049723757" width="192" id="SvgjsSvg1032">
                                              <g>
                                                <svg viewBox="0 0 192 83.8011049723757" height="83.8011049723757" width="192">
                                                  <g transform="matrix(1,0,0,1,0,0)">
                                                    <svg width="192" viewBox="-0.7999999999999998 -29.6 73.39999999999999 32.6" height="83.8011049723757" data-palette-color="url(#030a8b55-339f-499b-b427-26e5ae896079)"></svg>
                                                  </g>
                                                </svg>
                                              </g>
                                            </svg>
                                          </g>
                                        </svg>
                                      </g>
                                      <g transform="matrix(1,0,0,1,36.672,0)">
                                        <svg viewBox="0 0 118.656 110.10944375394449" height="110.10944375394449" width="118.656">
                                          <g>
                                            <svg xmlns="http://www.w3.org/2000/svg" xmlns:xlink="http://www.w3.org/1999/xlink" version="1.1" x="0" y="0" viewBox="18.097208739664175 20.400000000000006 63.90279126033581 59.30000000000001" enable-background="new 0 0 100 100" xml:space="preserve" height="110.10944375394449" width="118.656" class="icon-icon-0" data-fill-palette-color="accent" id="SvgjsSvg1030"></svg>
                                          </g>
                                        </svg>
                                      </g>
                                      <g></g>
                                    </svg>
                                  </g>
                                </svg>
                              </g>
                            </svg>
                          </g>
                        </svg>
                      </g>
                      <defs>
                        <mask></mask>
                      </defs>
                    </svg>
                  </g>
                </mask>
              </svg>
            </g>
          </mask>
          <linearGradient x1="0" x2="1" y1="0.578" y2="0.595" id="5a875a8d-78d2-4d49-8600-53a851961802">
            <stop stop-color="#6ee2f5" offset="0"></stop>
            <stop stop-color="#6454f0" offset="1"></stop>
          </linearGradient>
          <rect width="320.0000734559187" height="360" fill="url(#5a875a8d-78d2-4d49-8600-53a851961802)" mask="url(#dfc1851f-f95c-4764-95c1-8b2095b3a5dc)" data-fill-palette-color="accent"></rect>
          <mask id="dfa7aa23-f5c9-4b32-a5cf-e2120064ae60">
            <g id="SvgjsG1055">
              <svg viewBox="0 0 320 360" height="360" width="320">
                <g>
                  <svg></svg>
                </g>
                <g>
                  <svg viewBox="0 0 320 360" height="360" width="320">
                    <g>
                      <path transform="translate(-32.1528,-12.1528) scale(3.84303,3.84303)" d="M88.492 50l1.711-2.963c2.946-5.102 1.198-11.626-3.904-14.572l-2.963-1.711v-3.422c0-5.891-4.776-10.667-10.667-10.667h-3.422l-1.711-2.963c-2.946-5.102-9.47-6.85-14.572-3.904l-2.964 1.71-2.963-1.711c-5.102-2.945-11.626-1.197-14.572 3.905l-1.711 2.963h-3.422c-5.891 0-10.667 4.776-10.667 10.667v3.422l-2.963 1.711c-5.102 2.946-6.85 9.47-3.904 14.572l1.71 2.963-1.711 2.963c-2.945 5.102-1.197 11.626 3.905 14.572l2.963 1.711v3.422c0 5.891 4.776 10.667 10.667 10.667h3.422l1.711 2.963c2.946 5.102 9.47 6.85 14.572 3.904l2.963-1.71 2.963 1.711c5.102 2.946 11.626 1.198 14.572-3.904l1.711-2.963h3.422c5.891 0 10.667-4.776 10.667-10.667v-3.422l2.963-1.711c5.102-2.946 6.85-9.47 3.904-14.572zM85.832 33.273c2.252 1.3 3.862 3.399 4.535 5.91 0.673 2.511 0.328 5.135-0.972 7.386l-1.441 2.497-4.618-7.999v-9.236zM73.72 73.72l-15.038 8.682h-17.364l-15.038-8.682-8.682-15.038v-17.364l8.682-15.038 15.038-8.682h17.364l15.038 8.682 8.682 15.038v17.364zM82.401 60.549v8.158l-7.065 4.079zM72.786 75.336l-4.079 7.065h-8.158zM57.065 83.335l-7.065 4.079-7.065-4.079zM39.451 82.401h-8.158l-4.079-7.065zM24.664 72.786l-7.065-4.079v-8.158zM16.665 57.065l-4.079-7.065 4.079-7.065zM17.599 39.451v-8.158l7.065-4.079zM27.214 24.664l4.079-7.065h8.158zM42.935 16.665l7.065-4.079 7.065 4.079zM60.549 17.599h8.158l4.079 7.065zM75.336 27.214l7.065 4.079v8.158zM83.335 42.935l4.079 7.065-4.079 7.065zM72.668 17.599c2.6 0 5.044 1.012 6.883 2.851 1.838 1.838 2.851 4.283 2.851 6.883v2.883l-7.999-4.618-4.618-7.999zM53.43 10.606c2.252-1.3 4.875-1.645 7.386-0.972 2.511 0.673 4.61 2.284 5.91 4.535l1.441 2.497h-9.236l-7.999-4.618zM33.273 14.168c1.3-2.252 3.399-3.862 5.91-4.535 2.511-0.673 5.135-0.328 7.386 0.972l2.497 1.441-7.999 4.618h-9.236zM17.599 27.332c0-2.6 1.012-5.044 2.851-6.883 1.838-1.838 4.283-2.851 6.883-2.851h2.883l-4.618 7.999-7.999 4.618zM10.606 46.57c-1.3-2.252-1.645-4.875-0.972-7.386 0.673-2.511 2.284-4.61 4.535-5.91l2.497-1.441v9.236l-4.618 7.999zM14.168 66.727c-2.252-1.3-3.862-3.399-4.535-5.91-0.673-2.511-0.328-5.135 0.972-7.386l1.441-2.497 4.618 7.999v9.236zM27.332 82.401c-2.6 0-5.044-1.012-6.883-2.851-1.838-1.838-2.851-4.283-2.851-6.883v-2.883l7.999 4.618 4.618 7.999zM46.57 89.394c-2.252 1.3-4.875 1.645-7.386 0.972-2.511-0.673-4.61-2.284-5.91-4.535l-1.441-2.497h9.236l7.999 4.618zM66.727 85.832c-1.3 2.252-3.399 3.862-5.91 4.535-2.511 0.673-5.135 0.328-7.386-0.972l-2.497-1.441 7.999-4.618h9.236zM82.401 72.668c0 2.6-1.012 5.044-2.851 6.883-1.838 1.838-4.283 2.851-6.883 2.851h-2.883l4.618-7.999 7.999-4.618zM90.367 60.816c-0.673 2.511-2.284 4.61-4.535 5.91l-2.497 1.441v-9.236l4.618-7.999 1.441 2.497c1.3 2.253 1.646 4.876 0.973 7.387z" fill="white" fill-rule="nonzero" stroke="none" stroke-width="1" stroke-linecap="butt" stroke-linejoin="miter" stroke-miterlimit="10" stroke-dasharray="" stroke-dashoffset="0" font-family="none" font-weight="none" font-size="none" text-anchor="none" style="mix-blend-mode: normal"></path>
                    </g>
                    <g transform="matrix(1,0,0,1,75.3788372445132,90)">
                      <svg viewBox="0 0 169.2423255109736 180" height="180" width="169.2423255109736">
                        <g>
                          <svg viewBox="0 0 169.2423255109736 180" height="180" width="169.2423255109736">
                            <g>
                              <svg viewBox="0 0 192 204.20423730090582" height="180" width="169.2423255109736">
                                <g transform="matrix(1,0,0,1,0,120.40313232853012)">
                                  <svg viewBox="0 0 192 83.8011049723757" height="83.8011049723757" width="192">
                                    <g id="SvgjsG1054">
                                      <svg viewBox="0 0 192 83.8011049723757" height="83.8011049723757" width="192" id="SvgjsSvg1053">
                                        <g>
                                          <svg viewBox="0 0 192 83.8011049723757" height="83.8011049723757" width="192">
                                            <g transform="matrix(1,0,0,1,0,0)">
                                              <svg width="192" viewBox="-0.7999999999999998 -29.6 73.39999999999999 32.6" height="83.8011049723757" data-palette-color="url(#030a8b55-339f-499b-b427-26e5ae896079)"></svg>
                                            </g>
                                          </svg>
                                        </g>
                                      </svg>
                                    </g>
                                  </svg>
                                </g>
                                <g transform="matrix(1,0,0,1,36.672,0)">
                                  <svg viewBox="0 0 118.656 110.10944375394449" height="110.10944375394449" width="118.656">
                                    <g>
                                      <svg xmlns="http://www.w3.org/2000/svg" xmlns:xlink="http://www.w3.org/1999/xlink" version="1.1" x="0" y="0" viewBox="18.097208739664175 20.400000000000006 63.90279126033581 59.30000000000001" enable-background="new 0 0 100 100" xml:space="preserve" height="110.10944375394449" width="118.656" class="icon-icon-0" data-fill-palette-color="accent" id="SvgjsSvg1052"></svg>
                                    </g>
                                  </svg>
                                </g>
                                <g></g>
                              </svg>
                            </g>
                          </svg>
                        </g>
                      </svg>
                    </g>
                  </svg>
                </g>
                <defs>
                  <mask></mask>
                </defs>
                <mask>
                  <g id="SvgjsG1051">
                    <svg viewBox="0 0 320 360" height="360" width="320">
                      <g>
                        <svg></svg>
                      </g>
                      <g>
                        <svg viewBox="0 0 320 360" height="360" width="320">
                          <g></g>
                          <g transform="matrix(1,0,0,1,75.3788372445132,90)">
                            <svg viewBox="0 0 169.2423255109736 180" height="180" width="169.2423255109736">
                              <g>
                                <svg viewBox="0 0 169.2423255109736 180" height="180" width="169.2423255109736">
                                  <g>
                                    <svg viewBox="0 0 192 204.20423730090582" height="180" width="169.2423255109736">
                                      <g transform="matrix(1,0,0,1,0,120.40313232853012)">
                                        <svg viewBox="0 0 192 83.8011049723757" height="83.8011049723757" width="192">
                                          <g id="SvgjsG1050">
                                            <svg viewBox="0 0 192 83.8011049723757" height="83.8011049723757" width="192" id="SvgjsSvg1049">
                                              <g>
                                                <svg viewBox="0 0 192 83.8011049723757" height="83.8011049723757" width="192">
                                                  <g transform="matrix(1,0,0,1,0,0)">
                                                    <svg width="192" viewBox="-0.7999999999999998 -29.6 73.39999999999999 32.6" height="83.8011049723757" data-palette-color="url(#030a8b55-339f-499b-b427-26e5ae896079)"></svg>
                                                  </g>
                                                </svg>
                                              </g>
                                            </svg>
                                          </g>
                                        </svg>
                                      </g>
                                      <g transform="matrix(1,0,0,1,36.672,0)">
                                        <svg viewBox="0 0 118.656 110.10944375394449" height="110.10944375394449" width="118.656">
                                          <g>
                                            <svg xmlns="http://www.w3.org/2000/svg" xmlns:xlink="http://www.w3.org/1999/xlink" version="1.1" x="0" y="0" viewBox="18.097208739664175 20.400000000000006 63.90279126033581 59.30000000000001" enable-background="new 0 0 100 100" xml:space="preserve" height="110.10944375394449" width="118.656" class="icon-icon-0" data-fill-palette-color="accent" id="SvgjsSvg1047"></svg>
                                          </g>
                                        </svg>
                                      </g>
                                      <g></g>
                                    </svg>
                                  </g>
                                </svg>
                              </g>
                            </svg>
                          </g>
                        </svg>
                      </g>
                      <defs>
                        <mask></mask>
                      </defs>
                    </svg>
                  </g>
                </mask>
                <mask>
                  <g id="SvgjsG1046">
                    <svg viewBox="0 0 320 360" height="360" width="320">
                      <g>
                        <svg></svg>
                      </g>
                      <g>
                        <svg viewBox="0 0 320 360" height="360" width="320">
                          <g></g>
                          <g transform="matrix(1,0,0,1,75.3788372445132,90)">
                            <svg viewBox="0 0 169.2423255109736 180" height="180" width="169.2423255109736">
                              <g>
                                <svg viewBox="0 0 169.2423255109736 180" height="180" width="169.2423255109736">
                                  <g>
                                    <svg viewBox="0 0 192 204.20423730090582" height="180" width="169.2423255109736">
                                      <g transform="matrix(1,0,0,1,0,120.40313232853012)">
                                        <svg viewBox="0 0 192 83.8011049723757" height="83.8011049723757" width="192">
                                          <g id="SvgjsG1045">
                                            <svg viewBox="0 0 192 83.8011049723757" height="83.8011049723757" width="192" id="SvgjsSvg1044">
                                              <g>
                                                <svg viewBox="0 0 192 83.8011049723757" height="83.8011049723757" width="192">
                                                  <g transform="matrix(1,0,0,1,0,0)">
                                                    <svg width="192" viewBox="-0.7999999999999998 -29.6 73.39999999999999 32.6" height="83.8011049723757" data-palette-color="url(#030a8b55-339f-499b-b427-26e5ae896079)"></svg>
                                                  </g>
                                                </svg>
                                              </g>
                                            </svg>
                                          </g>
                                        </svg>
                                      </g>
                                      <g transform="matrix(1,0,0,1,36.672,0)">
                                        <svg viewBox="0 0 118.656 110.10944375394449" height="110.10944375394449" width="118.656">
                                          <g>
                                            <svg xmlns="http://www.w3.org/2000/svg" xmlns:xlink="http://www.w3.org/1999/xlink" version="1.1" x="0" y="0" viewBox="18.097208739664175 20.400000000000006 63.90279126033581 59.30000000000001" enable-background="new 0 0 100 100" xml:space="preserve" height="110.10944375394449" width="118.656" class="icon-icon-0" data-fill-palette-color="accent" id="SvgjsSvg1043"></svg>
                                          </g>
                                        </svg>
                                      </g>
                                      <g></g>
                                    </svg>
                                  </g>
                                </svg>
                              </g>
                            </svg>
                          </g>
                        </svg>
                      </g>
                      <defs>
                        <mask></mask>
                      </defs>
                      <mask>
                        <g id="SvgjsG1042">
                          <svg viewBox="0 0 320 360" height="360" width="320">
                            <g>
                              <svg></svg>
                            </g>
                            <g>
                              <svg viewBox="0 0 320 360" height="360" width="320">
                                <g></g>
                                <g transform="matrix(1,0,0,1,75.3788372445132,90)">
                                  <svg viewBox="0 0 169.2423255109736 180" height="180" width="169.2423255109736">
                                    <g>
                                      <svg viewBox="0 0 169.2423255109736 180" height="180" width="169.2423255109736">
                                        <g>
                                          <svg viewBox="0 0 192 204.20423730090582" height="180" width="169.2423255109736">
                                            <g transform="matrix(1,0,0,1,0,120.40313232853012)">
                                              <svg viewBox="0 0 192 83.8011049723757" height="83.8011049723757" width="192">
                                                <g id="SvgjsG1041">
                                                  <svg viewBox="0 0 192 83.8011049723757" height="83.8011049723757" width="192" id="SvgjsSvg1040">
                                                    <g>
                                                      <svg viewBox="0 0 192 83.8011049723757" height="83.8011049723757" width="192">
                                                        <g transform="matrix(1,0,0,1,0,0)">
                                                          <svg width="192" viewBox="-0.7999999999999998 -29.6 73.39999999999999 32.6" height="83.8011049723757" data-palette-color="url(#030a8b55-339f-499b-b427-26e5ae896079)"></svg>
                                                        </g>
                                                      </svg>
                                                    </g>
                                                  </svg>
                                                </g>
                                              </svg>
                                            </g>
                                            <g transform="matrix(1,0,0,1,36.672,0)">
                                              <svg viewBox="0 0 118.656 110.10944375394449" height="110.10944375394449" width="118.656">
                                                <g>
                                                  <svg xmlns="http://www.w3.org/2000/svg" xmlns:xlink="http://www.w3.org/1999/xlink" version="1.1" x="0" y="0" viewBox="18.097208739664175 20.400000000000006 63.90279126033581 59.30000000000001" enable-background="new 0 0 100 100" xml:space="preserve" height="110.10944375394449" width="118.656" class="icon-icon-0" data-fill-palette-color="accent" id="SvgjsSvg1039"></svg>
                                                </g>
                                              </svg>
                                            </g>
                                            <g></g>
                                          </svg>
                                        </g>
                                      </svg>
                                    </g>
                                  </svg>
                                </g>
                              </svg>
                            </g>
                            <defs>
                              <mask></mask>
                            </defs>
                          </svg>
                        </g>
                      </mask>
                    </svg>
                  </g>
                </mask>
              </svg>
            </g>
          </mask>
          <linearGradient x1="0" x2="1" y1="0.578" y2="0.595" id="1ada2b8b-e73c-4812-b35c-92ce98a424a5">
            <stop stop-color="#6ee2f5" offset="0"></stop>
            <stop stop-color="#6454f0" offset="1"></stop>
          </linearGradient>
        </svg>
        <rect width="320" height="360" fill="none" stroke="none" visibility="hidden"></rect>
      </g>
    </svg>
  </g>
</svg></svg></g></svg></g><g id="dark-icon"><svg xmlns="http://www.w3.org/2000/svg" version="1.1" xmlns:xlink="http://www.w3.org/1999/xlink" xmlns:svgjs="http://svgjs.com/svgjs" width="1000" height="1000"><rect width="1000" height="1000" rx="500" ry="500" fill="#232323"></rect><g transform="matrix(0.8888888888888888,0,0,0.8888888888888888,55.555676746014,0)"><svg xmlns="http://www.w3.org/2000/svg" version="1.1" xmlns:xlink="http://www.w3.org/1999/xlink" xmlns:svgjs="http://svgjs.com/svgjs" width="1000" height="1125"><svg xmlns="http://www.w3.org/2000/svg" version="1.1" xmlns:xlink="http://www.w3.org/1999/xlink" xmlns:svgjs="http://svgjs.dev/svgjs" width="1000" height="1125" viewBox="0 0 1000 1125"><g transform="matrix(1,0,0,1,0.0011008540699322111,0)"><svg viewBox="0 0 320 360" data-background-color="#3e1462" preserveAspectRatio="xMidYMid meet" height="1125" width="1000" xmlns="http://www.w3.org/2000/svg" xmlns:xlink="http://www.w3.org/1999/xlink"><g id="tight-bounds" transform="matrix(1,0,0,1,0.00010353528136874957,0)"><svg viewBox="0 0 320 360" height="360" width="320"><g><svg></svg></g><g><svg viewBox="0 0 320 360" height="360" width="320"><g><path xmlns="http://www.w3.org/2000/svg" d="M307.925 179.999l6.575-11.387c11.322-19.607 4.604-44.679-15.003-56.001l-11.387-6.575v-13.151c0-22.639-18.354-40.994-40.994-40.994h-13.151l-6.575-11.387c-11.322-19.607-36.393-26.325-56.001-15.003l-11.39 6.572-11.387-6.576c-19.607-11.318-44.679-4.6-56.001 15.007l-6.575 11.387h-13.151c-22.639 0-40.994 18.354-40.994 40.994v13.151l-11.387 6.575c-19.607 11.322-26.325 36.393-15.003 56.001l6.572 11.387-6.576 11.387c-11.318 19.607-4.6 44.679 15.007 56l11.387 6.576v13.15c0 22.639 18.354 40.994 40.994 40.994h13.151l6.575 11.387c11.322 19.607 36.393 26.325 56.001 15.003l11.387-6.571 11.387 6.575c19.607 11.322 44.679 4.604 56-15.003l6.576-11.387h13.15c22.639 0 40.994-18.354 40.994-40.994v-13.151l11.387-6.575c19.607-11.322 26.325-36.393 15.003-56.001zM297.702 115.716c8.655 4.996 14.842 13.062 17.428 22.713 2.586 9.65 1.261 19.734-3.735 28.384l-5.538 9.596-17.747-30.74v-35.494zM251.155 271.155l-57.791 33.365h-66.731l-57.791-33.365-33.365-57.791v-66.731l33.365-57.791 57.791-33.365h66.731l57.791 33.365 33.365 57.791v66.731zM284.517 220.539v31.351l-27.151 15.676zM247.566 277.366l-15.676 27.151h-31.351zM187.15 308.106l-27.151 15.676-27.151-15.676zM119.459 304.517h-31.352l-15.676-27.151zM62.632 267.566l-27.151-15.676v-31.351zM31.891 207.15l-15.675-27.151 15.675-27.151zM35.481 139.459v-31.352l27.151-15.676zM72.431 82.632l15.676-27.151h31.352zM132.848 51.891l27.151-15.675 27.151 15.675zM200.539 55.481h31.351l15.676 27.151zM257.366 92.431l27.151 15.676v31.352zM288.106 152.848l15.676 27.151-15.676 27.151zM247.112 55.481c9.992 0 19.384 3.889 26.452 10.956 7.063 7.063 10.956 16.46 10.957 26.452v11.079l-30.741-17.747-17.747-30.74zM173.18 28.606c8.655-4.996 18.735-6.322 28.385-3.735 9.65 2.586 17.716 8.777 22.712 17.428l5.538 9.596h-35.494l-30.741-17.747zM95.716 42.295c4.996-8.655 13.062-14.842 22.713-17.428 9.65-2.586 19.734-1.261 28.384 3.736l9.596 5.537-30.74 17.747h-35.494zM35.481 92.885c0-9.992 3.889-19.384 10.956-26.452 7.063-7.063 16.46-10.956 26.452-10.956h11.079l-17.747 30.74-30.74 17.747zM8.606 166.817c-4.996-8.655-6.322-18.735-3.735-28.385 2.586-9.65 8.777-17.716 17.428-22.712l9.596-5.538v35.495l-17.747 30.74zM22.295 244.281c-8.655-4.996-14.842-13.062-17.428-22.712-2.586-9.65-1.261-19.734 3.736-28.385l5.537-9.596 17.747 30.74v35.495zM72.885 304.517c-9.992 0-19.384-3.889-26.452-10.957-7.063-7.063-10.956-16.46-10.956-26.451v-11.08l30.74 17.747 17.747 30.741zM146.817 331.391c-8.655 4.996-18.735 6.322-28.385 3.735-9.65-2.586-17.716-8.777-22.712-17.428l-5.538-9.596h35.495l30.74 17.747zM224.281 317.702c-4.996 8.655-13.062 14.842-22.712 17.428-9.65 2.586-19.734 1.261-28.385-3.735l-9.596-5.538 30.74-17.747h35.495zM284.517 267.112c0 9.992-3.889 19.384-10.957 26.452-7.063 7.063-16.46 10.956-26.451 10.957h-11.08l17.747-30.741 30.741-17.747zM315.13 221.565c-2.586 9.65-8.777 17.716-17.428 22.712l-9.596 5.538v-35.494l17.747-30.741 5.538 9.596c4.996 8.658 6.326 18.739 3.739 28.389z" fill="#9439c2" fill-rule="nonzero" stroke="none" stroke-width="1" stroke-linecap="butt" stroke-linejoin="miter" stroke-miterlimit="10" stroke-dasharray="" stroke-dashoffset="0" font-family="none" font-weight="none" font-size="none" text-anchor="none" style="mix-blend-mode: normal" data-fill-palette-color="tertiary"></path></g><g transform="matrix(1,0,0,1,75.37883729628487,90)"><svg viewBox="0 0 169.24232540743026 180" height="180" width="169.24232540743026"><g><svg viewBox="0 0 169.24232540743026 180" height="180" width="169.24232540743026"><g><svg viewBox="0 0 192 204.20423742583904" height="180" width="169.24232540743026"><g transform="matrix(1,0,0,1,0,120.40313245346336)"><svg viewBox="0 0 192 83.8011049723757" height="83.8011049723757" width="192"><g id="textblocktransform"><svg viewBox="0 0 192 83.8011049723757" height="83.8011049723757" width="192" id="textblock"><g><svg viewBox="0 0 192 83.8011049723757" height="83.8011049723757" width="192"><g transform="matrix(1,0,0,1,0,0)"><svg width="192" viewBox="-0.7999999523162842 -29.600000381469727 73.4000015258789 32.60000038146973" height="83.8011049723757" data-palette-color="#e1dce3"><path d="M2.2 0L2.2-2.7 5.6-2.7 5.6-22 2.2-22.65 2.2-24.85 11.05-26.6 11.05-21.95 11.3-21.95Q11.65-22.85 12.18-23.68 12.7-24.5 13.48-25.15 14.25-25.8 15.28-26.2 16.3-26.6 17.6-26.6L17.6-26.6Q19.9-26.6 21.28-25.45 22.65-24.3 22.65-22.15L22.65-22.15Q22.65-20.45 21.78-19.48 20.9-18.5 19.4-18.5L19.4-18.5Q17.85-18.5 16.98-19.33 16.1-20.15 16.1-21.4L16.1-21.4Q16.1-22.25 16.45-22.83 16.8-23.4 17.3-23.5L17.3-23.5 17.3-23.65Q17.15-23.7 16.95-23.73 16.75-23.75 16.35-23.75L16.35-23.75Q15.4-23.75 14.48-23.25 13.55-22.75 12.83-21.98 12.1-21.2 11.65-20.23 11.2-19.25 11.2-18.3L11.2-18.3 11.2-2.7 15.6-2.7 15.6 0 2.2 0ZM25.4 0L25.4-2.7 28.8-2.7 28.8-22 25.4-22.65 25.4-24.85 34.25-26.6 34.25-21.95 34.5-21.95Q34.8-22.8 35.4-23.65 36-24.5 36.9-25.15 37.8-25.8 39-26.2 40.2-26.6 41.75-26.6L41.75-26.6Q45.1-26.6 47.02-25.38 48.95-24.15 49.7-21.6L49.7-21.6 49.85-21.6Q50.25-22.5 50.92-23.4 51.6-24.3 52.55-25.03 53.5-25.75 54.75-26.18 56-26.6 57.65-26.6L57.65-26.6Q62.3-26.6 64.25-24.18 66.2-21.75 66.2-16.9L66.2-16.9 66.2-2.7 69.6-2.7 69.6 0 57.4 0 57.4-2.7 60.6-2.7 60.6-16.6Q60.6-19.85 59.37-21.35 58.15-22.85 55.6-22.85L55.6-22.85Q54.6-22.85 53.65-22.58 52.7-22.3 51.95-21.73 51.2-21.15 50.75-20.28 50.3-19.4 50.3-18.2L50.3-18.2 50.3-2.7 53.5-2.7 53.5 0 41.5 0 41.5-2.7 44.7-2.7 44.7-16.6Q44.7-19.85 43.47-21.35 42.25-22.85 39.7-22.85L39.7-22.85Q38.7-22.85 37.75-22.58 36.8-22.3 36.05-21.73 35.3-21.15 34.85-20.28 34.4-19.4 34.4-18.2L34.4-18.2 34.4-2.7 37.6-2.7 37.6 0 25.4 0Z" opacity="1" transform="matrix(1,0,0,1,0,0)" fill="#e1dce3" class="wordmark-text-0" data-fill-palette-color="primary" id="text-0"></path></svg></g></svg></g></svg></g></svg></g><g transform="matrix(1,0,0,1,36.672,0)"><svg viewBox="0 0 118.656 110.10944387887773" height="110.10944387887773" width="118.656"><g><svg xmlns="http://www.w3.org/2000/svg" xmlns:xlink="http://www.w3.org/1999/xlink" version="1.1" x="0" y="0" viewBox="18.09720802307129 20.400001525878906 63.90278625488281 59.29999542236328" enable-background="new 0 0 100 100" xml:space="preserve" height="110.10944387887773" width="118.656" class="icon-icon-0" data-fill-palette-color="accent" id="icon-0"><g fill="#bb84e8" data-fill-palette-color="accent"><path d="M23.8 31.6c0.6 0 1.2-0.1 1.8-0.3l6.9 2.6c2.7 1 4.5 3.7 4.5 6.6 0 3.5 2.1 6.6 5.3 7.9l2.4 0.9c-0.3 0.7-0.5 1.5-0.5 2.4 0 3.2 2.6 5.7 5.7 5.7 1.1 0 2.1-0.3 3-0.8l5.9 2.1c2.6 0.9 4.4 3.4 4.4 6.2 0 2.8 1.8 5.3 4.5 6.2l3.1 1c-0.2 0.6-0.3 1.2-0.3 1.9 0 3.2 2.6 5.7 5.7 5.7 3.2 0 5.7-2.6 5.7-5.7 0-3.2-2.6-5.7-5.7-5.7-1.4 0-2.6 0.5-3.6 1.3l-3.9-1.3c-1.5-0.5-2.5-1.9-2.5-3.4 0-4-2.5-7.7-6.3-9l-4.7-1.7c0.2-0.3 0.3-0.7 0.4-1h15.2c0.7 2.4 2.9 4.3 5.5 4.3 3.2 0 5.7-2.6 5.7-5.7 0-3.2-2.6-5.7-5.7-5.7-2.7 0-4.9 1.8-5.5 4.3H55.5C54.9 47.8 52.7 46 50 46c-1.2 0-2.3 0.4-3.2 1l-3.3-1.3c-2.1-0.8-3.5-2.8-3.5-5.1 0-4.1-2.6-7.9-6.5-9.4l-5.1-1.9c0.4-0.5 0.7-1.2 0.9-1.8h15.2c0.7 2.4 2.9 4.3 5.5 4.3s4.9-1.8 5.5-4.3h15.2c0.7 2.4 2.9 4.3 5.5 4.3 3.2 0 5.7-2.6 5.7-5.7 0-3.2-2.6-5.7-5.7-5.7-2.7 0-4.9 1.8-5.5 4.3H55.5c-0.7-2.4-2.9-4.3-5.5-4.3s-4.9 1.8-5.5 4.3H29.3c-0.7-2.4-2.9-4.3-5.5-4.3-3.2 0-5.7 2.6-5.7 5.7C18 29 20.6 31.6 23.8 31.6zM79 74.1c0 1.5-1.2 2.8-2.8 2.8-1.5 0-2.8-1.2-2.8-2.8 0-1.5 1.2-2.8 2.8-2.8C77.8 71.4 79 72.6 79 74.1zM76.2 49c1.5 0 2.8 1.2 2.8 2.8 0 1.5-1.2 2.8-2.8 2.8-1.5 0-2.8-1.2-2.8-2.8C73.5 50.2 74.7 49 76.2 49zM52.8 51.7c0 1.5-1.2 2.8-2.8 2.8s-2.8-1.2-2.8-2.8c0-1.5 1.2-2.8 2.8-2.8S52.8 50.2 52.8 51.7zM76.2 23.1c1.5 0 2.8 1.2 2.8 2.8 0 1.5-1.2 2.8-2.8 2.8-1.5 0-2.8-1.2-2.8-2.8C73.5 24.3 74.7 23.1 76.2 23.1zM50 23.1c1.5 0 2.8 1.2 2.8 2.8 0 0 0 0 0 0 0 0 0 0 0 0 0 1.5-1.2 2.8-2.8 2.8-1.5 0-2.8-1.2-2.8-2.8C47.2 24.3 48.5 23.1 50 23.1zM23.8 23.1c1.5 0 2.8 1.2 2.8 2.8 0 1.5-1.2 2.8-2.8 2.8-1.5 0-2.8-1.2-2.8-2.8C21 24.3 22.2 23.1 23.8 23.1z" fill="#bb84e8" data-fill-palette-color="accent"></path></g></svg></g></svg></g><g></g></svg></g></svg></g></svg></g></svg></g><defs></defs></svg><rect width="320" height="360" fill="none" stroke="none" visibility="hidden"></rect></g></svg></g></svg></svg></g></svg></g></svg>