<?xml version="1.0" encoding="UTF-8" standalone="no"?>
<svg xmlns="http://www.w3.org/2000/svg" version="1.1" xmlns:xlink="http://www.w3.org/1999/xlink" xmlns:svgjs="http://svgjs.dev/svgjs" width="1000" height="1000" viewBox="0 0 1000 1000">
  <rect width="1000" height="1000" fill="#3e1462"/>
  <g transform="matrix(0.7,0,0,0.7,150.00077059784894,106.25)">
    <svg viewBox="0 0 320 360" data-background-color="#3e1462" preserveAspectRatio="xMidYMid meet" height="1125" width="1000" xmlns="http://www.w3.org/2000/svg" xmlns:xlink="http://www.w3.org/1999/xlink">
      <g id="tight-bounds" transform="matrix(1,0,0,1,0.00010353528136874957,0)">
        <svg viewBox="0 0 320 360" height="360" width="320">
          <g>
            <svg/>
          </g>
          <g>
            <svg viewBox="0 0 320 360" height="360" width="320">
              <g>
                <path xmlns="http://www.w3.org/2000/svg" d="M307.925 179.999l6.575-11.387c11.322-19.607 4.604-44.679-15.003-56.001l-11.387-6.575v-13.151c0-22.639-18.354-40.994-40.994-40.994h-13.151l-6.575-11.387c-11.322-19.607-36.393-26.325-56.001-15.003l-11.39 6.572-11.387-6.576c-19.607-11.318-44.679-4.6-56.001 15.007l-6.575 11.387h-13.151c-22.639 0-40.994 18.354-40.994 40.994v13.151l-11.387 6.575c-19.607 11.322-26.325 36.393-15.003 56.001l6.572 11.387-6.576 11.387c-11.318 19.607-4.6 44.679 15.007 56l11.387 6.576v13.15c0 22.639 18.354 40.994 40.994 40.994h13.151l6.575 11.387c11.322 19.607 36.393 26.325 56.001 15.003l11.387-6.571 11.387 6.575c19.607 11.322 44.679 4.604 56-15.003l6.576-11.387h13.15c22.639 0 40.994-18.354 40.994-40.994v-13.151l11.387-6.575c19.607-11.322 26.325-36.393 15.003-56.001zM297.702 115.716c8.655 4.996 14.842 13.062 17.428 22.713 2.586 9.65 1.261 19.734-3.735 28.384l-5.538 9.596-17.747-30.74v-35.494zM251.155 271.155l-57.791 33.365h-66.731l-57.791-33.365-33.365-57.791v-66.731l33.365-57.791 57.791-33.365h66.731l57.791 33.365 33.365 57.791v66.731zM284.517 220.539v31.351l-27.151 15.676zM247.566 277.366l-15.676 27.151h-31.351zM187.15 308.106l-27.151 15.676-27.151-15.676zM119.459 304.517h-31.352l-15.676-27.151zM62.632 267.566l-27.151-15.676v-31.351zM31.891 207.15l-15.675-27.151 15.675-27.151zM35.481 139.459v-31.352l27.151-15.676zM72.431 82.632l15.676-27.151h31.352zM132.848 51.891l27.151-15.675 27.151 15.675zM200.539 55.481h31.351l15.676 27.151zM257.366 92.431l27.151 15.676v31.352zM288.106 152.848l15.676 27.151-15.676 27.151zM247.112 55.481c9.992 0 19.384 3.889 26.452 10.956 7.063 7.063 10.956 16.46 10.957 26.452v11.079l-30.741-17.747-17.747-30.74zM173.18 28.606c8.655-4.996 18.735-6.322 28.385-3.735 9.65 2.586 17.716 8.777 22.712 17.428l5.538 9.596h-35.494l-30.741-17.747zM95.716 42.295c4.996-8.655 13.062-14.842 22.713-17.428 9.65-2.586 19.734-1.261 28.384 3.736l9.596 5.537-30.74 17.747h-35.494zM35.481 92.885c0-9.992 3.889-19.384 10.956-26.452 7.063-7.063 16.46-10.956 26.452-10.956h11.079l-17.747 30.74-30.74 17.747zM8.606 166.817c-4.996-8.655-6.322-18.735-3.735-28.385 2.586-9.65 8.777-17.716 17.428-22.712l9.596-5.538v35.495l-17.747 30.74zM22.295 244.281c-8.655-4.996-14.842-13.062-17.428-22.712-2.586-9.65-1.261-19.734 3.736-28.385l5.537-9.596 17.747 30.74v35.495zM72.885 304.517c-9.992 0-19.384-3.889-26.452-10.957-7.063-7.063-10.956-16.46-10.956-26.451v-11.08l30.74 17.747 17.747 30.741zM146.817 331.391c-8.655 4.996-18.735 6.322-28.385 3.735-9.65-2.586-17.716-8.777-22.712-17.428l-5.538-9.596h35.495l30.74 17.747zM224.281 317.702c-4.996 8.655-13.062 14.842-22.712 17.428-9.65 2.586-19.734 1.261-28.385-3.735l-9.596-5.538 30.74-17.747h35.495zM284.517 267.112c0 9.992-3.889 19.384-10.957 26.452-7.063 7.063-16.46 10.956-26.451 10.957h-11.08l17.747-30.741 30.741-17.747zM315.13 221.565c-2.586 9.65-8.777 17.716-17.428 22.712l-9.596 5.538v-35.494l17.747-30.741 5.538 9.596c4.996 8.658 6.326 18.739 3.739 28.389z" fill="#9439c2" fill-rule="nonzero" stroke="none" stroke-width="1" stroke-linecap="butt" stroke-linejoin="miter" stroke-miterlimit="10" stroke-dasharray="" stroke-dashoffset="0" font-family="none" font-weight="none" font-size="none" text-anchor="none" style="mix-blend-mode: normal" data-fill-palette-color="tertiary"/>
              </g>
              <g transform="matrix(1,0,0,1,75.37883729628487,90)">
                <svg viewBox="0 0 169.24232540743026 180" height="180" width="169.24232540743026">
                  <g>
                    <svg viewBox="0 0 169.24232540743026 180" height="180" width="169.24232540743026">
                      <g>
                        <svg viewBox="0 0 192 204.20423742583904" height="180" width="169.24232540743026">
                          <g transform="matrix(1,0,0,1,0,120.40313245346336)">
                            <svg viewBox="0 0 192 83.8011049723757" height="83.8011049723757" width="192">
                              <g id="textblocktransform">
                                <svg viewBox="0 0 192 83.8011049723757" height="83.8011049723757" width="192" id="textblock">
                                  <g>
                                    <svg viewBox="0 0 192 83.8011049723757" height="83.8011049723757" width="192">
                                      <g transform="matrix(1,0,0,1,0,0)">
                                        <svg width="192" viewBox="-0.7999999523162842 -29.600000381469727 73.4000015258789 32.60000038146973" height="83.8011049723757" data-palette-color="#e1dce3">
                                          <path d="M2.2 0L2.2-2.7 5.6-2.7 5.6-22 2.2-22.65 2.2-24.85 11.05-26.6 11.05-21.95 11.3-21.95Q11.65-22.85 12.18-23.68 12.7-24.5 13.48-25.15 14.25-25.8 15.28-26.2 16.3-26.6 17.6-26.6L17.6-26.6Q19.9-26.6 21.28-25.45 22.65-24.3 22.65-22.15L22.65-22.15Q22.65-20.45 21.78-19.48 20.9-18.5 19.4-18.5L19.4-18.5Q17.85-18.5 16.98-19.33 16.1-20.15 16.1-21.4L16.1-21.4Q16.1-22.25 16.45-22.83 16.8-23.4 17.3-23.5L17.3-23.5 17.3-23.65Q17.15-23.7 16.95-23.73 16.75-23.75 16.35-23.75L16.35-23.75Q15.4-23.75 14.48-23.25 13.55-22.75 12.83-21.98 12.1-21.2 11.65-20.23 11.2-19.25 11.2-18.3L11.2-18.3 11.2-2.7 15.6-2.7 15.6 0 2.2 0ZM25.4 0L25.4-2.7 28.8-2.7 28.8-22 25.4-22.65 25.4-24.85 34.25-26.6 34.25-21.95 34.5-21.95Q34.8-22.8 35.4-23.65 36-24.5 36.9-25.15 37.8-25.8 39-26.2 40.2-26.6 41.75-26.6L41.75-26.6Q45.1-26.6 47.02-25.38 48.95-24.15 49.7-21.6L49.7-21.6 49.85-21.6Q50.25-22.5 50.92-23.4 51.6-24.3 52.55-25.03 53.5-25.75 54.75-26.18 56-26.6 57.65-26.6L57.65-26.6Q62.3-26.6 64.25-24.18 66.2-21.75 66.2-16.9L66.2-16.9 66.2-2.7 69.6-2.7 69.6 0 57.4 0 57.4-2.7 60.6-2.7 60.6-16.6Q60.6-19.85 59.37-21.35 58.15-22.85 55.6-22.85L55.6-22.85Q54.6-22.85 53.65-22.58 52.7-22.3 51.95-21.73 51.2-21.15 50.75-20.28 50.3-19.4 50.3-18.2L50.3-18.2 50.3-2.7 53.5-2.7 53.5 0 41.5 0 41.5-2.7 44.7-2.7 44.7-16.6Q44.7-19.85 43.47-21.35 42.25-22.85 39.7-22.85L39.7-22.85Q38.7-22.85 37.75-22.58 36.8-22.3 36.05-21.73 35.3-21.15 34.85-20.28 34.4-19.4 34.4-18.2L34.4-18.2 34.4-2.7 37.6-2.7 37.6 0 25.4 0Z" opacity="1" transform="matrix(1,0,0,1,0,0)" fill="#e1dce3" class="wordmark-text-0" data-fill-palette-color="primary" id="text-0"/>
                                        </svg>
                                      </g>
                                    </svg>
                                  </g>
                                </svg>
                              </g>
                            </svg>
                          </g>
                          <g transform="matrix(1,0,0,1,36.672,0)">
                            <svg viewBox="0 0 118.656 110.10944387887773" height="110.10944387887773" width="118.656">
                              <g>
                                <svg xmlns="http://www.w3.org/2000/svg" xmlns:xlink="http://www.w3.org/1999/xlink" version="1.1" x="0" y="0" viewBox="18.09720802307129 20.400001525878906 63.90278625488281 59.29999542236328" enable-background="new 0 0 100 100" xml:space="preserve" height="110.10944387887773" width="118.656" class="icon-icon-0" data-fill-palette-color="accent" id="icon-0">
                                  <g fill="#bb84e8" data-fill-palette-color="accent">
                                    <path d="M23.8 31.6c0.6 0 1.2-0.1 1.8-0.3l6.9 2.6c2.7 1 4.5 3.7 4.5 6.6 0 3.5 2.1 6.6 5.3 7.9l2.4 0.9c-0.3 0.7-0.5 1.5-0.5 2.4 0 3.2 2.6 5.7 5.7 5.7 1.1 0 2.1-0.3 3-0.8l5.9 2.1c2.6 0.9 4.4 3.4 4.4 6.2 0 2.8 1.8 5.3 4.5 6.2l3.1 1c-0.2 0.6-0.3 1.2-0.3 1.9 0 3.2 2.6 5.7 5.7 5.7 3.2 0 5.7-2.6 5.7-5.7 0-3.2-2.6-5.7-5.7-5.7-1.4 0-2.6 0.5-3.6 1.3l-3.9-1.3c-1.5-0.5-2.5-1.9-2.5-3.4 0-4-2.5-7.7-6.3-9l-4.7-1.7c0.2-0.3 0.3-0.7 0.4-1h15.2c0.7 2.4 2.9 4.3 5.5 4.3 3.2 0 5.7-2.6 5.7-5.7 0-3.2-2.6-5.7-5.7-5.7-2.7 0-4.9 1.8-5.5 4.3H55.5C54.9 47.8 52.7 46 50 46c-1.2 0-2.3 0.4-3.2 1l-3.3-1.3c-2.1-0.8-3.5-2.8-3.5-5.1 0-4.1-2.6-7.9-6.5-9.4l-5.1-1.9c0.4-0.5 0.7-1.2 0.9-1.8h15.2c0.7 2.4 2.9 4.3 5.5 4.3s4.9-1.8 5.5-4.3h15.2c0.7 2.4 2.9 4.3 5.5 4.3 3.2 0 5.7-2.6 5.7-5.7 0-3.2-2.6-5.7-5.7-5.7-2.7 0-4.9 1.8-5.5 4.3H55.5c-0.7-2.4-2.9-4.3-5.5-4.3s-4.9 1.8-5.5 4.3H29.3c-0.7-2.4-2.9-4.3-5.5-4.3-3.2 0-5.7 2.6-5.7 5.7C18 29 20.6 31.6 23.8 31.6zM79 74.1c0 1.5-1.2 2.8-2.8 2.8-1.5 0-2.8-1.2-2.8-2.8 0-1.5 1.2-2.8 2.8-2.8C77.8 71.4 79 72.6 79 74.1zM76.2 49c1.5 0 2.8 1.2 2.8 2.8 0 1.5-1.2 2.8-2.8 2.8-1.5 0-2.8-1.2-2.8-2.8C73.5 50.2 74.7 49 76.2 49zM52.8 51.7c0 1.5-1.2 2.8-2.8 2.8s-2.8-1.2-2.8-2.8c0-1.5 1.2-2.8 2.8-2.8S52.8 50.2 52.8 51.7zM76.2 23.1c1.5 0 2.8 1.2 2.8 2.8 0 1.5-1.2 2.8-2.8 2.8-1.5 0-2.8-1.2-2.8-2.8C73.5 24.3 74.7 23.1 76.2 23.1zM50 23.1c1.5 0 2.8 1.2 2.8 2.8 0 0 0 0 0 0 0 0 0 0 0 0 0 1.5-1.2 2.8-2.8 2.8-1.5 0-2.8-1.2-2.8-2.8C47.2 24.3 48.5 23.1 50 23.1zM23.8 23.1c1.5 0 2.8 1.2 2.8 2.8 0 1.5-1.2 2.8-2.8 2.8-1.5 0-2.8-1.2-2.8-2.8C21 24.3 22.2 23.1 23.8 23.1z" fill="#bb84e8" data-fill-palette-color="accent"/>
                                  </g>
                                </svg>
                              </g>
                            </svg>
                          </g>
                          <g/>
                        </svg>
                      </g>
                    </svg>
                  </g>
                </svg>
              </g>
            </svg>
          </g>
          <defs/>
        </svg>
        <rect width="320" height="360" fill="none" stroke="none" visibility="hidden"/>
      </g>
    </svg>
  </g>
</svg>